# xmcd
#
# Track frame offsets:
#	183
#	10483
#	24468
#	36310
#	49070
#	67220
#	83095
#	96095
#	107475
#	119195
#
# Disc length: 1905 seconds
#
# Revision: 2
# Processed by: cddbd v1.5PL3 Copyright (c) Steve Scherf et al.
# Submitted via: MusicManager 7.0.4.0 
#
DISCID=87076f0a
DTITLE=The Statler Brothers - Pardners in Rhyme
DYEAR=1985
DGENRE=
TTITLE0=Hello Mary Lou
TTITLE1=Sweeter and Sweeter
TTITLE2=Memory Lane
TTITLE3=Remembering You
TTITLE4=Too Much On My Heart
TTITLE5=I'm Sorry You Had To Be The One
TTITLE6=Her Heart Or Mine
TTITLE7=You Don't Wear Blue So Well
TTITLE8=Autumn Leaves
TTITLE9=Amazing Grace
EXTD=
EXTT0=
EXTT1=
EXTT2=
EXTT3=
EXTT4=
EXTT5=
EXTT6=
EXTT7=
EXTT8=
EXTT9=
PLAYORDER=
